<svg width="348" height="20" viewBox="0 0 348 20" fill="none" xmlns="http://www.w3.org/2000/svg">
<path d="M9.99996 18.3334C14.6023 18.3334 18.3333 14.6024 18.3333 10C18.3333 5.39765 14.6023 1.66669 9.99996 1.66669C5.39759 1.66669 1.66663 5.39765 1.66663 10C1.66663 14.6024 5.39759 18.3334 9.99996 18.3334Z" stroke="#DC2626" stroke-width="1.25"/>
<path d="M9.99329 12.5H10.0008" stroke="#DC2626" stroke-width="1.66667" stroke-linecap="round" stroke-linejoin="round"/>
<path d="M10 10V6.66669" stroke="#DC2626" stroke-width="1.25" stroke-linecap="round" stroke-linejoin="round"/>
<path d="M26.352 6.278V9.54H29.908V10.59H26.352V13.95H30.328V15H25.078V5.228H30.328V6.278H26.352ZM33.5297 8.574C33.7537 8.13533 34.0711 7.79467 34.4817 7.552C34.9017 7.30933 35.4104 7.188 36.0077 7.188V8.504H35.6717C34.2437 8.504 33.5297 9.27867 33.5297 10.828V15H32.2557V7.328H33.5297V8.574ZM38.7524 8.574C38.9764 8.13533 39.2937 7.79467 39.7044 7.552C40.1244 7.30933 40.6331 7.188 41.2304 7.188V8.504H40.8944C39.4664 8.504 38.7524 9.27867 38.7524 10.828V15H37.4784V7.328H38.7524V8.574ZM46.047 15.126C45.3284 15.126 44.675 14.9627 44.087 14.636C43.5084 14.3093 43.051 13.8473 42.715 13.25C42.3884 12.6433 42.225 11.9433 42.225 11.15C42.225 10.366 42.393 9.67533 42.729 9.078C43.0744 8.47133 43.541 8.00933 44.129 7.692C44.717 7.36533 45.375 7.202 46.103 7.202C46.831 7.202 47.489 7.36533 48.077 7.692C48.665 8.00933 49.127 8.46667 49.463 9.064C49.8084 9.66133 49.981 10.3567 49.981 11.15C49.981 11.9433 49.8037 12.6433 49.449 13.25C49.1037 13.8473 48.6324 14.3093 48.035 14.636C47.4377 14.9627 46.775 15.126 46.047 15.126ZM46.047 14.006C46.5044 14.006 46.9337 13.8987 47.335 13.684C47.7364 13.4693 48.0584 13.1473 48.301 12.718C48.553 12.2887 48.679 11.766 48.679 11.15C48.679 10.534 48.5577 10.0113 48.315 9.582C48.0724 9.15267 47.755 8.83533 47.363 8.63C46.971 8.41533 46.5464 8.308 46.089 8.308C45.6224 8.308 45.193 8.41533 44.801 8.63C44.4184 8.83533 44.1104 9.15267 43.877 9.582C43.6437 10.0113 43.527 10.534 43.527 11.15C43.527 11.7753 43.639 12.3027 43.863 12.732C44.0964 13.1613 44.4044 13.4833 44.787 13.698C45.1697 13.9033 45.5897 14.006 46.047 14.006ZM52.9301 8.574C53.1541 8.13533 53.4715 7.79467 53.8821 7.552C54.3021 7.30933 54.8108 7.188 55.4081 7.188V8.504H55.0721C53.6441 8.504 52.9301 9.27867 52.9301 10.828V15H51.6561V7.328H52.9301V8.574ZM69.8372 7.188C70.4345 7.188 70.9665 7.314 71.4332 7.566C71.8999 7.80867 72.2685 8.17733 72.5392 8.672C72.8099 9.16667 72.9452 9.76867 72.9452 10.478V15H71.6852V10.66C71.6852 9.89467 71.4939 9.31133 71.1112 8.91C70.7379 8.49933 70.2292 8.294 69.5852 8.294C68.9225 8.294 68.3952 8.50867 68.0032 8.938C67.6112 9.358 67.4152 9.96933 67.4152 10.772V15H66.1552V10.66C66.1552 9.89467 65.9639 9.31133 65.5812 8.91C65.2079 8.49933 64.6992 8.294 64.0552 8.294C63.3925 8.294 62.8652 8.50867 62.4732 8.938C62.0812 9.358 61.8852 9.96933 61.8852 10.772V15H60.6112V7.328H61.8852V8.434C62.1372 8.03267 62.4732 7.72467 62.8932 7.51C63.3225 7.29533 63.7939 7.188 64.3072 7.188C64.9512 7.188 65.5205 7.33267 66.0152 7.622C66.5099 7.91133 66.8785 8.336 67.1212 8.896C67.3359 8.35467 67.6905 7.93467 68.1852 7.636C68.6799 7.33733 69.2305 7.188 69.8372 7.188ZM82.035 10.87C82.035 11.1127 82.021 11.3693 81.993 11.64H75.861C75.9077 12.396 76.1644 12.9887 76.631 13.418C77.107 13.838 77.681 14.048 78.353 14.048C78.9037 14.048 79.361 13.922 79.725 13.67C80.0984 13.4087 80.3597 13.0633 80.509 12.634H81.881C81.6757 13.3713 81.265 13.9733 80.649 14.44C80.033 14.8973 79.2677 15.126 78.353 15.126C77.625 15.126 76.9717 14.9627 76.393 14.636C75.8237 14.3093 75.3757 13.8473 75.049 13.25C74.7224 12.6433 74.559 11.9433 74.559 11.15C74.559 10.3567 74.7177 9.66133 75.035 9.064C75.3524 8.46667 75.7957 8.00933 76.365 7.692C76.9437 7.36533 77.6064 7.202 78.353 7.202C79.081 7.202 79.725 7.36067 80.285 7.678C80.845 7.99533 81.2744 8.434 81.573 8.994C81.881 9.54467 82.035 10.17 82.035 10.87ZM80.719 10.604C80.719 10.1187 80.6117 9.70333 80.397 9.358C80.1824 9.00333 79.8884 8.73733 79.515 8.56C79.151 8.37333 78.745 8.28 78.297 8.28C77.653 8.28 77.1024 8.48533 76.645 8.896C76.197 9.30667 75.9404 9.876 75.875 10.604H80.719ZM86.4327 15.126C85.8447 15.126 85.3173 15.028 84.8507 14.832C84.384 14.6267 84.0153 14.3467 83.7447 13.992C83.474 13.628 83.3247 13.2127 83.2967 12.746H84.6127C84.65 13.1287 84.8273 13.4413 85.1447 13.684C85.4713 13.9267 85.896 14.048 86.4187 14.048C86.904 14.048 87.2867 13.9407 87.5667 13.726C87.8467 13.5113 87.9867 13.2407 87.9867 12.914C87.9867 12.578 87.8373 12.3307 87.5387 12.172C87.24 12.004 86.778 11.8407 86.1527 11.682C85.5833 11.5327 85.1167 11.3833 84.7527 11.234C84.398 11.0753 84.09 10.8467 83.8287 10.548C83.5767 10.24 83.4507 9.83867 83.4507 9.344C83.4507 8.952 83.5673 8.59267 83.8007 8.266C84.034 7.93933 84.3653 7.68267 84.7947 7.496C85.224 7.3 85.714 7.202 86.2647 7.202C87.114 7.202 87.8 7.41667 88.3227 7.846C88.8453 8.27533 89.1253 8.86333 89.1627 9.61H87.8887C87.8607 9.20867 87.6973 8.88667 87.3987 8.644C87.1093 8.40133 86.7173 8.28 86.2227 8.28C85.7653 8.28 85.4013 8.378 85.1307 8.574C84.86 8.77 84.7247 9.02667 84.7247 9.344C84.7247 9.596 84.804 9.806 84.9627 9.974C85.1307 10.1327 85.336 10.2633 85.5787 10.366C85.8307 10.4593 86.176 10.5667 86.6147 10.688C87.1653 10.8373 87.6133 10.9867 87.9587 11.136C88.304 11.276 88.598 11.4907 88.8407 11.78C89.0927 12.0693 89.2233 12.4473 89.2327 12.914C89.2327 13.334 89.116 13.712 88.8827 14.048C88.6493 14.384 88.318 14.65 87.8887 14.846C87.4687 15.0327 86.9833 15.126 86.4327 15.126ZM93.7471 15.126C93.1591 15.126 92.6318 15.028 92.1651 14.832C91.6985 14.6267 91.3298 14.3467 91.0591 13.992C90.7885 13.628 90.6391 13.2127 90.6111 12.746H91.9271C91.9645 13.1287 92.1418 13.4413 92.4591 13.684C92.7858 13.9267 93.2105 14.048 93.7331 14.048C94.2185 14.048 94.6011 13.9407 94.8811 13.726C95.1611 13.5113 95.3011 13.2407 95.3011 12.914C95.3011 12.578 95.1518 12.3307 94.8531 12.172C94.5545 12.004 94.0925 11.8407 93.4671 11.682C92.8978 11.5327 92.4311 11.3833 92.0671 11.234C91.7125 11.0753 91.4045 10.8467 91.1431 10.548C90.8911 10.24 90.7651 9.83867 90.7651 9.344C90.7651 8.952 90.8818 8.59267 91.1151 8.266C91.3485 7.93933 91.6798 7.68267 92.1091 7.496C92.5385 7.3 93.0285 7.202 93.5791 7.202C94.4285 7.202 95.1145 7.41667 95.6371 7.846C96.1598 8.27533 96.4398 8.86333 96.4771 9.61H95.2031C95.1751 9.20867 95.0118 8.88667 94.7131 8.644C94.4238 8.40133 94.0318 8.28 93.5371 8.28C93.0798 8.28 92.7158 8.378 92.4451 8.574C92.1745 8.77 92.0391 9.02667 92.0391 9.344C92.0391 9.596 92.1185 9.806 92.2771 9.974C92.4451 10.1327 92.6505 10.2633 92.8931 10.366C93.1451 10.4593 93.4905 10.5667 93.9291 10.688C94.4798 10.8373 94.9278 10.9867 95.2731 11.136C95.6185 11.276 95.9125 11.4907 96.1551 11.78C96.4071 12.0693 96.5378 12.4473 96.5471 12.914C96.5471 13.334 96.4305 13.712 96.1971 14.048C95.9638 14.384 95.6325 14.65 95.2031 14.846C94.7831 15.0327 94.2978 15.126 93.7471 15.126ZM97.8696 11.136C97.8696 10.352 98.0282 9.666 98.3456 9.078C98.6629 8.48067 99.0969 8.01867 99.6476 7.692C100.208 7.36533 100.828 7.202 101.51 7.202C102.182 7.202 102.765 7.34667 103.26 7.636C103.754 7.92533 104.123 8.28933 104.366 8.728V7.328H105.654V15H104.366V13.572C104.114 14.02 103.736 14.3933 103.232 14.692C102.737 14.9813 102.158 15.126 101.496 15.126C100.814 15.126 100.198 14.958 99.6476 14.622C99.0969 14.286 98.6629 13.8147 98.3456 13.208C98.0282 12.6013 97.8696 11.9107 97.8696 11.136ZM104.366 11.15C104.366 10.5713 104.249 10.0673 104.016 9.638C103.782 9.20867 103.465 8.882 103.064 8.658C102.672 8.42467 102.238 8.308 101.762 8.308C101.286 8.308 100.852 8.42 100.46 8.644C100.068 8.868 99.7549 9.19467 99.5216 9.624C99.2882 10.0533 99.1716 10.5573 99.1716 11.136C99.1716 11.724 99.2882 12.2373 99.5216 12.676C99.7549 13.1053 100.068 13.4367 100.46 13.67C100.852 13.894 101.286 14.006 101.762 14.006C102.238 14.006 102.672 13.894 103.064 13.67C103.465 13.4367 103.782 13.1053 104.016 12.676C104.249 12.2373 104.366 11.7287 104.366 11.15ZM110.971 7.202C111.633 7.202 112.212 7.34667 112.707 7.636C113.211 7.92533 113.584 8.28933 113.827 8.728V7.328H115.115V15.168C115.115 15.868 114.965 16.4887 114.667 17.03C114.368 17.5807 113.939 18.01 113.379 18.318C112.828 18.626 112.184 18.78 111.447 18.78C110.439 18.78 109.599 18.542 108.927 18.066C108.255 17.59 107.858 16.9413 107.737 16.12H108.997C109.137 16.5867 109.426 16.96 109.865 17.24C110.303 17.5293 110.831 17.674 111.447 17.674C112.147 17.674 112.716 17.4547 113.155 17.016C113.603 16.5773 113.827 15.9613 113.827 15.168V13.558C113.575 14.006 113.201 14.3793 112.707 14.678C112.212 14.9767 111.633 15.126 110.971 15.126C110.289 15.126 109.669 14.958 109.109 14.622C108.558 14.286 108.124 13.8147 107.807 13.208C107.489 12.6013 107.331 11.9107 107.331 11.136C107.331 10.352 107.489 9.666 107.807 9.078C108.124 8.48067 108.558 8.01867 109.109 7.692C109.669 7.36533 110.289 7.202 110.971 7.202ZM113.827 11.15C113.827 10.5713 113.71 10.0673 113.477 9.638C113.243 9.20867 112.926 8.882 112.525 8.658C112.133 8.42467 111.699 8.308 111.223 8.308C110.747 8.308 110.313 8.42 109.921 8.644C109.529 8.868 109.216 9.19467 108.983 9.624C108.749 10.0533 108.633 10.5573 108.633 11.136C108.633 11.724 108.749 12.2373 108.983 12.676C109.216 13.1053 109.529 13.4367 109.921 13.67C110.313 13.894 110.747 14.006 111.223 14.006C111.699 14.006 112.133 13.894 112.525 13.67C112.926 13.4367 113.243 13.1053 113.477 12.676C113.71 12.2373 113.827 11.7287 113.827 11.15ZM124.267 10.87C124.267 11.1127 124.253 11.3693 124.225 11.64H118.093C118.14 12.396 118.397 12.9887 118.863 13.418C119.339 13.838 119.913 14.048 120.585 14.048C121.136 14.048 121.593 13.922 121.957 13.67C122.331 13.4087 122.592 13.0633 122.741 12.634H124.113C123.908 13.3713 123.497 13.9733 122.881 14.44C122.265 14.8973 121.5 15.126 120.585 15.126C119.857 15.126 119.204 14.9627 118.625 14.636C118.056 14.3093 117.608 13.8473 117.281 13.25C116.955 12.6433 116.791 11.9433 116.791 11.15C116.791 10.3567 116.95 9.66133 117.267 9.064C117.585 8.46667 118.028 8.00933 118.597 7.692C119.176 7.36533 119.839 7.202 120.585 7.202C121.313 7.202 121.957 7.36067 122.517 7.678C123.077 7.99533 123.507 8.434 123.805 8.994C124.113 9.54467 124.267 10.17 124.267 10.87ZM122.951 10.604C122.951 10.1187 122.844 9.70333 122.629 9.358C122.415 9.00333 122.121 8.73733 121.747 8.56C121.383 8.37333 120.977 8.28 120.529 8.28C119.885 8.28 119.335 8.48533 118.877 8.896C118.429 9.30667 118.173 9.876 118.107 10.604H122.951Z" fill="#DC2626"/>
</svg>
